<svg width="16" height="17" viewBox="0 0 16 17" fill="none" xmlns="http://www.w3.org/2000/svg">
<path d="M12 9.28671V7.16671C11.999 6.22212 11.6638 5.30835 11.0537 4.58722C10.4436 3.86609 9.598 3.38414 8.66663 3.22671V2.50004C8.66663 2.32323 8.59639 2.15366 8.47136 2.02864C8.34634 1.90361 8.17677 1.83337 7.99996 1.83337C7.82315 1.83337 7.65358 1.90361 7.52855 2.02864C7.40353 2.15366 7.33329 2.32323 7.33329 2.50004V3.22671C6.40192 3.38414 5.55631 3.86609 4.94622 4.58722C4.33612 5.30835 4.00092 6.22212 3.99996 7.16671V9.28671C3.61093 9.42425 3.27396 9.67875 3.03525 10.0153C2.79654 10.3519 2.66779 10.7541 2.66663 11.1667V12.5C2.66663 12.6769 2.73686 12.8464 2.86189 12.9714C2.98691 13.0965 3.15648 13.1667 3.33329 13.1667H5.42663C5.58015 13.7316 5.91529 14.2303 6.38036 14.5859C6.84542 14.9414 7.41456 15.134 7.99996 15.134C8.58536 15.134 9.1545 14.9414 9.61956 14.5859C10.0846 14.2303 10.4198 13.7316 10.5733 13.1667H12.6666C12.8434 13.1667 13.013 13.0965 13.138 12.9714C13.2631 12.8464 13.3333 12.6769 13.3333 12.5V11.1667C13.3321 10.7541 13.2034 10.3519 12.9647 10.0153C12.726 9.67875 12.389 9.42425 12 9.28671ZM5.33329 7.16671C5.33329 6.45946 5.61424 5.78119 6.11434 5.28109C6.61444 4.78099 7.29272 4.50004 7.99996 4.50004C8.7072 4.50004 9.38548 4.78099 9.88558 5.28109C10.3857 5.78119 10.6666 6.45946 10.6666 7.16671V9.16671H5.33329V7.16671ZM7.99996 13.8334C7.76727 13.832 7.53901 13.7697 7.33785 13.6527C7.13668 13.5358 6.96963 13.3682 6.85329 13.1667H9.14663C9.03029 13.3682 8.86323 13.5358 8.66207 13.6527C8.46091 13.7697 8.23264 13.832 7.99996 13.8334ZM12 11.8334H3.99996V11.1667C3.99996 10.9899 4.0702 10.8203 4.19522 10.6953C4.32025 10.5703 4.48981 10.5 4.66663 10.5H11.3333C11.5101 10.5 11.6797 10.5703 11.8047 10.6953C11.9297 10.8203 12 10.9899 12 11.1667V11.8334Z" fill="#FF4654"/>
</svg>
