<svg width="35" height="35" viewBox="0 0 35 35" fill="none" xmlns="http://www.w3.org/2000/svg">
<g clip-path="url(#clip0_399_11979)">
<g clip-path="url(#clip1_399_11979)">
<path d="M29.2145 5.6659C27.0012 4.61121 24.6596 3.8618 22.2518 3.4375C21.9518 3.98973 21.6014 4.73249 21.3598 5.32339C18.7636 4.92583 16.1914 4.92583 13.643 5.32339C13.4015 4.73262 13.0431 3.98973 12.7404 3.4375C10.3302 3.862 7.98665 4.61331 5.77225 5.6714C1.36577 12.453 0.171201 19.066 0.768419 25.5853C3.69109 27.8081 6.52346 29.1584 9.3081 30.042C10.0001 29.0727 10.6119 28.0466 11.1371 26.9742C10.1372 26.5865 9.1734 26.1088 8.25697 25.5467C8.49814 25.3646 8.73362 25.1749 8.96308 24.9778C14.5163 27.6231 20.5501 27.6231 26.0372 24.9778C26.2676 25.1736 26.503 25.3633 26.7431 25.5467C25.8252 26.1103 24.8596 26.589 23.8578 26.977C24.3859 28.0538 24.9966 29.0809 25.6867 30.0447C28.474 29.1612 31.309 27.8109 34.2317 25.5853C34.9325 18.0278 33.0346 11.4754 29.2145 5.66576V5.6659ZM11.8937 21.576C10.2266 21.576 8.85946 19.991 8.85946 18.061C8.85946 16.1309 10.1975 14.5432 11.8937 14.5432C13.59 14.5432 14.957 16.1281 14.9279 18.061C14.9305 19.991 13.59 21.576 11.8937 21.576ZM23.1064 21.576C21.4394 21.576 20.0724 19.991 20.0724 18.061C20.0724 16.1309 21.4102 14.5432 23.1064 14.5432C24.8028 14.5432 26.1698 16.1281 26.1407 18.061C26.1407 19.991 24.8028 21.576 23.1064 21.576Z" fill="#5865F2"/>
</g>
</g>
<defs>
<clipPath id="clip0_399_11979">
<rect width="33.75" height="33.75" fill="white" transform="translate(0.625 0.625)"/>
</clipPath>
<clipPath id="clip1_399_11979">
<rect width="33.75" height="26.7188" fill="white" transform="translate(0.625 3.4375)"/>
</clipPath>
</defs>
</svg>
