<svg width="14" height="11" viewBox="0 0 14 11" fill="none" xmlns="http://www.w3.org/2000/svg">
<path d="M13.6133 5.23335C12.2667 2.10669 9.73335 0.166687 7.00001 0.166687C4.26668 0.166687 1.73335 2.10669 0.386681 5.23335C0.349972 5.31746 0.331024 5.40825 0.331024 5.50002C0.331024 5.59179 0.349972 5.68258 0.386681 5.76669C1.73335 8.89335 4.26668 10.8334 7.00001 10.8334C9.73335 10.8334 12.2667 8.89335 13.6133 5.76669C13.6501 5.68258 13.669 5.59179 13.669 5.50002C13.669 5.40825 13.6501 5.31746 13.6133 5.23335ZM7.00001 9.50002C4.88668 9.50002 2.88668 7.97335 1.73335 5.50002C2.88668 3.02669 4.88668 1.50002 7.00001 1.50002C9.11335 1.50002 11.1133 3.02669 12.2667 5.50002C11.1133 7.97335 9.11335 9.50002 7.00001 9.50002ZM7.00001 2.83335C6.4726 2.83335 5.95703 2.98975 5.51849 3.28277C5.07996 3.57579 4.73817 3.99226 4.53633 4.47953C4.3345 4.9668 4.28169 5.50298 4.38459 6.02026C4.48748 6.53754 4.74146 7.0127 5.1144 7.38564C5.48734 7.75858 5.96249 8.01255 6.47977 8.11545C6.99706 8.21834 7.53323 8.16553 8.0205 7.9637C8.50777 7.76187 8.92425 7.42007 9.21727 6.98154C9.51028 6.54301 9.66668 6.02744 9.66668 5.50002C9.66668 4.79278 9.38573 4.1145 8.88563 3.6144C8.38554 3.11431 7.70726 2.83335 7.00001 2.83335ZM7.00001 6.83335C6.73631 6.83335 6.47852 6.75515 6.25925 6.60865C6.03999 6.46214 5.86909 6.2539 5.76817 6.01026C5.66726 5.76663 5.64085 5.49854 5.6923 5.2399C5.74375 4.98126 5.87074 4.74368 6.05721 4.55721C6.24368 4.37074 6.48125 4.24375 6.73989 4.19231C6.99854 4.14086 7.26662 4.16726 7.51026 4.26818C7.75389 4.3691 7.96213 4.53999 8.10864 4.75926C8.25515 4.97853 8.33335 5.23631 8.33335 5.50002C8.33335 5.85364 8.19287 6.19278 7.94282 6.44283C7.69277 6.69288 7.35364 6.83335 7.00001 6.83335Z" fill="#0B0B0B"/>
</svg>
