<svg width="152" height="130" viewBox="0 0 152 130" fill="none" xmlns="http://www.w3.org/2000/svg">
<path d="M37.1429 41H33.3609L28 57H31.7819L37.1429 41Z" fill="#00FDFF"/>
<path d="M44 41H42.2096L37.1429 57H38.9333L44 41Z" fill="#FF4654"/>
<g filter="url(#filter0_d_428_6379)">
<path d="M16 62.5507V35.4493C16 27.8164 19.7313 24 27.1938 24H43.7349C51.245 24 55 27.8164 55 35.4493V62.5507C55 70.1836 51.245 74 43.7349 74H27.1938C19.7313 74 16 70.1836 16 62.5507ZM23.2724 63.2029C23.2724 65.9565 24.6033 67.3333 27.2651 67.3333H43.6636C46.3729 67.3333 47.7276 65.9565 47.7276 63.2029V34.7971C47.7276 32.0435 46.3729 30.6667 43.6636 30.6667H27.2651C24.6033 30.6667 23.2724 32.0435 23.2724 34.7971V63.2029Z" fill="#00FDFF"/>
</g>
<path d="M73.64 53.451V40.779C73.64 37.413 75.323 35.73 78.689 35.73H86.411C89.777 35.73 91.46 37.413 91.46 40.779V53.451C91.46 56.817 89.777 58.5 86.411 58.5H78.689C75.323 58.5 73.64 56.817 73.64 53.451ZM76.412 53.748C76.412 55.244 77.16 55.992 78.656 55.992H86.444C87.94 55.992 88.688 55.244 88.688 53.748V40.482C88.688 38.986 87.94 38.238 86.444 38.238H78.656C77.16 38.238 76.412 38.986 76.412 40.482V53.748ZM95.4264 41.802L95.7234 41.34H98.0004L103.016 56.19H103.676L108.692 41.34H110.969L111.266 41.802L103.214 65.1H100.937L100.64 64.638L102.851 58.5H101.201L95.4264 41.802ZM115.079 53.55V41.34H117.719V53.88C117.719 55.42 118.489 56.19 120.029 56.19H126.629V41.34H129.269V58.5H120.029C116.729 58.5 115.079 56.85 115.079 53.55ZM135.207 58.5V41.34H144.447C147.747 41.34 149.397 42.99 149.397 46.29V58.5H146.757V45.96C146.757 44.42 145.987 43.65 144.447 43.65H137.847V58.5H135.207Z" fill="white"/>
<defs>
<filter id="filter0_d_428_6379" x="-40" y="-32" width="151" height="162" filterUnits="userSpaceOnUse" color-interpolation-filters="sRGB">
<feFlood flood-opacity="0" result="BackgroundImageFix"/>
<feColorMatrix in="SourceAlpha" type="matrix" values="0 0 0 0 0 0 0 0 0 0 0 0 0 0 0 0 0 0 127 0" result="hardAlpha"/>
<feOffset/>
<feGaussianBlur stdDeviation="28"/>
<feComposite in2="hardAlpha" operator="out"/>
<feColorMatrix type="matrix" values="0 0 0 0 0 0 0 0 0 0.992157 0 0 0 0 1 0 0 0 0.6 0"/>
<feBlend mode="normal" in2="BackgroundImageFix" result="effect1_dropShadow_428_6379"/>
<feBlend mode="normal" in="SourceGraphic" in2="effect1_dropShadow_428_6379" result="shape"/>
</filter>
</defs>
</svg>
